<mxfile host="app.diagrams.net" modified="2023-09-04T13:56:06.689Z" agent="Mozilla/5.0 (Windows NT 6.1; Win64; x64; rv:109.0) Gecko/20100101 Firefox/115.0" etag="ahvQc9BeWXtbG8mmU5QX" version="21.6.9" type="device">
  <diagram name="Page-1" id="2a216829-ef6e-dabb-86c1-c78162f3ba2b">
    <mxGraphModel dx="1400" dy="720" grid="1" gridSize="10" guides="1" tooltips="1" connect="1" arrows="1" fold="1" page="1" pageScale="1" pageWidth="1169" pageHeight="827" background="none" math="0" shadow="0">
      <root>
        <mxCell id="0" />
        <mxCell id="1" parent="0" />
        <mxCell id="Jbeqt2HLPeFKV9M9eCiw-30" value="Экономика" style="swimlane;html=1;startSize=31;horizontal=0;whiteSpace=wrap;fontSize=9;" parent="1" vertex="1">
          <mxGeometry x="10" y="369" width="1140" height="121" as="geometry" />
        </mxCell>
        <mxCell id="Jbeqt2HLPeFKV9M9eCiw-42" value="План доходов" style="points=[[0.25,0,0],[0.5,0,0],[0.75,0,0],[1,0.25,0],[1,0.5,0],[1,0.75,0],[0.75,1,0],[0.5,1,0],[0.25,1,0],[0,0.75,0],[0,0.5,0],[0,0.25,0]];shape=mxgraph.bpmn.task;whiteSpace=wrap;rectStyle=rounded;size=10;html=1;container=1;expand=0;collapsible=0;taskMarker=abstract;isLoopSub=1;fontSize=9;" parent="Jbeqt2HLPeFKV9M9eCiw-30" vertex="1">
          <mxGeometry x="636" y="10" width="79" height="40" as="geometry" />
        </mxCell>
        <mxCell id="crRijYuh_1POvyGoVFcz-18" value="План расходов" style="points=[[0.25,0,0],[0.5,0,0],[0.75,0,0],[1,0.25,0],[1,0.5,0],[1,0.75,0],[0.75,1,0],[0.5,1,0],[0.25,1,0],[0,0.75,0],[0,0.5,0],[0,0.25,0]];shape=mxgraph.bpmn.task;whiteSpace=wrap;rectStyle=rounded;size=10;html=1;container=1;expand=0;collapsible=0;taskMarker=abstract;isLoopSub=1;fontSize=9;" vertex="1" parent="Jbeqt2HLPeFKV9M9eCiw-30">
          <mxGeometry x="636" y="60" width="79" height="40" as="geometry" />
        </mxCell>
        <mxCell id="crRijYuh_1POvyGoVFcz-57" value="Факт доходов" style="points=[[0.25,0,0],[0.5,0,0],[0.75,0,0],[1,0.25,0],[1,0.5,0],[1,0.75,0],[0.75,1,0],[0.5,1,0],[0.25,1,0],[0,0.75,0],[0,0.5,0],[0,0.25,0]];shape=mxgraph.bpmn.task;whiteSpace=wrap;rectStyle=rounded;size=10;html=1;container=1;expand=0;collapsible=0;taskMarker=abstract;isLoopSub=1;fontSize=9;" vertex="1" parent="Jbeqt2HLPeFKV9M9eCiw-30">
          <mxGeometry x="315.5" y="10" width="74.5" height="40" as="geometry" />
        </mxCell>
        <mxCell id="crRijYuh_1POvyGoVFcz-58" value="Факт расходов" style="points=[[0.25,0,0],[0.5,0,0],[0.75,0,0],[1,0.25,0],[1,0.5,0],[1,0.75,0],[0.75,1,0],[0.5,1,0],[0.25,1,0],[0,0.75,0],[0,0.5,0],[0,0.25,0]];shape=mxgraph.bpmn.task;whiteSpace=wrap;rectStyle=rounded;size=10;html=1;container=1;expand=0;collapsible=0;taskMarker=abstract;isLoopSub=1;fontSize=9;" vertex="1" parent="Jbeqt2HLPeFKV9M9eCiw-30">
          <mxGeometry x="315.5" y="60" width="74.5" height="40" as="geometry" />
        </mxCell>
        <mxCell id="crRijYuh_1POvyGoVFcz-197" style="edgeStyle=orthogonalEdgeStyle;rounded=0;orthogonalLoop=1;jettySize=auto;html=1;exitX=1;exitY=0.5;exitDx=0;exitDy=0;exitPerimeter=0;entryX=0;entryY=0.5;entryDx=0;entryDy=0;entryPerimeter=0;" edge="1" parent="Jbeqt2HLPeFKV9M9eCiw-30" source="crRijYuh_1POvyGoVFcz-167" target="Jbeqt2HLPeFKV9M9eCiw-42">
          <mxGeometry relative="1" as="geometry">
            <Array as="points">
              <mxPoint x="621" y="30" />
            </Array>
          </mxGeometry>
        </mxCell>
        <mxCell id="crRijYuh_1POvyGoVFcz-198" style="edgeStyle=orthogonalEdgeStyle;rounded=0;orthogonalLoop=1;jettySize=auto;html=1;entryX=0;entryY=0.5;entryDx=0;entryDy=0;entryPerimeter=0;exitX=1;exitY=0.5;exitDx=0;exitDy=0;exitPerimeter=0;" edge="1" parent="Jbeqt2HLPeFKV9M9eCiw-30" source="crRijYuh_1POvyGoVFcz-167" target="crRijYuh_1POvyGoVFcz-18">
          <mxGeometry relative="1" as="geometry">
            <Array as="points">
              <mxPoint x="621" y="80" />
            </Array>
          </mxGeometry>
        </mxCell>
        <mxCell id="crRijYuh_1POvyGoVFcz-167" value="" style="points=[[0.25,0.25,0],[0.5,0,0],[0.75,0.25,0],[1,0.5,0],[0.75,0.75,0],[0.5,1,0],[0.25,0.75,0],[0,0.5,0]];shape=mxgraph.bpmn.gateway2;html=1;verticalLabelPosition=bottom;labelBackgroundColor=#ffffff;verticalAlign=top;align=center;perimeter=rhombusPerimeter;outlineConnect=0;outline=none;symbol=none;gwType=parallel;" vertex="1" parent="Jbeqt2HLPeFKV9M9eCiw-30">
          <mxGeometry x="571" y="30" width="50" height="50" as="geometry" />
        </mxCell>
        <mxCell id="Jbeqt2HLPeFKV9M9eCiw-27" value="&lt;div style=&quot;font-size: 9px;&quot; align=&quot;left&quot;&gt;А1.3 Бюджет на месяц&lt;/div&gt;" style="swimlane;html=1;childLayout=stackLayout;resizeParent=1;resizeParentMax=0;horizontal=1;startSize=20;horizontalStack=0;whiteSpace=wrap;align=left;fontSize=9;" parent="Jbeqt2HLPeFKV9M9eCiw-30" vertex="1">
          <mxGeometry y="-230" width="1140" height="110" as="geometry">
            <mxRectangle x="19" y="130" width="170" height="30" as="alternateBounds" />
          </mxGeometry>
        </mxCell>
        <mxCell id="crRijYuh_1POvyGoVFcz-5" value="Генеральный директор" style="swimlane;html=1;startSize=31;horizontal=0;whiteSpace=wrap;fontSize=9;" vertex="1" parent="Jbeqt2HLPeFKV9M9eCiw-27">
          <mxGeometry y="20" width="1140" height="90" as="geometry" />
        </mxCell>
        <mxCell id="crRijYuh_1POvyGoVFcz-171" value="&lt;font style=&quot;font-size: 9px;&quot;&gt;Утверждение&lt;/font&gt;" style="points=[[0.25,0,0],[0.5,0,0],[0.75,0,0],[1,0.25,0],[1,0.5,0],[1,0.75,0],[0.75,1,0],[0.5,1,0],[0.25,1,0],[0,0.75,0],[0,0.5,0],[0,0.25,0]];shape=mxgraph.bpmn.task;whiteSpace=wrap;rectStyle=rounded;size=10;html=1;container=1;expand=0;collapsible=0;taskMarker=abstract;" vertex="1" parent="crRijYuh_1POvyGoVFcz-5">
          <mxGeometry x="1001" y="17.5" width="90" height="40" as="geometry" />
        </mxCell>
        <mxCell id="Jbeqt2HLPeFKV9M9eCiw-28" value="Финансы" style="swimlane;html=1;startSize=31;horizontal=0;whiteSpace=wrap;fontSize=9;spacing=0;" parent="Jbeqt2HLPeFKV9M9eCiw-30" vertex="1">
          <mxGeometry y="-120" width="1140" height="120" as="geometry">
            <mxRectangle y="20" width="480" height="31" as="alternateBounds" />
          </mxGeometry>
        </mxCell>
        <mxCell id="Jbeqt2HLPeFKV9M9eCiw-41" value="" style="edgeStyle=elbowEdgeStyle;fontSize=12;html=1;endArrow=blockThin;endFill=1;rounded=0;exitX=1;exitY=0.5;exitDx=0;exitDy=0;exitPerimeter=0;entryX=0;entryY=0.5;entryDx=0;entryDy=0;entryPerimeter=0;" parent="Jbeqt2HLPeFKV9M9eCiw-28" edge="1">
          <mxGeometry width="160" relative="1" as="geometry">
            <mxPoint x="80.5" y="90.5" as="sourcePoint" />
            <mxPoint x="91" y="90.5" as="targetPoint" />
          </mxGeometry>
        </mxCell>
        <mxCell id="crRijYuh_1POvyGoVFcz-161" style="rounded=0;orthogonalLoop=1;jettySize=auto;html=1;exitX=1;exitY=0.5;exitDx=0;exitDy=0;exitPerimeter=0;entryX=0;entryY=0.5;entryDx=0;entryDy=0;entryPerimeter=0;" edge="1" parent="Jbeqt2HLPeFKV9M9eCiw-28" source="crRijYuh_1POvyGoVFcz-19" target="crRijYuh_1POvyGoVFcz-27">
          <mxGeometry relative="1" as="geometry" />
        </mxCell>
        <mxCell id="crRijYuh_1POvyGoVFcz-19" value="Сводный бюджет" style="points=[[0.25,0,0],[0.5,0,0],[0.75,0,0],[1,0.25,0],[1,0.5,0],[1,0.75,0],[0.75,1,0],[0.5,1,0],[0.25,1,0],[0,0.75,0],[0,0.5,0],[0,0.25,0]];shape=mxgraph.bpmn.task;whiteSpace=wrap;rectStyle=rounded;size=10;html=1;container=1;expand=0;collapsible=0;taskMarker=abstract;isLoopSub=1;fontSize=9;" vertex="1" parent="Jbeqt2HLPeFKV9M9eCiw-28">
          <mxGeometry x="821" y="15" width="79" height="40" as="geometry" />
        </mxCell>
        <mxCell id="crRijYuh_1POvyGoVFcz-165" style="edgeStyle=orthogonalEdgeStyle;rounded=0;orthogonalLoop=1;jettySize=auto;html=1;exitX=1;exitY=0.5;exitDx=0;exitDy=0;exitPerimeter=0;entryX=0;entryY=0.5;entryDx=0;entryDy=0;entryPerimeter=0;" edge="1" parent="Jbeqt2HLPeFKV9M9eCiw-28" source="crRijYuh_1POvyGoVFcz-27" target="crRijYuh_1POvyGoVFcz-125">
          <mxGeometry relative="1" as="geometry" />
        </mxCell>
        <mxCell id="crRijYuh_1POvyGoVFcz-27" value="Согласование с генеральным директором" style="points=[[0.25,0,0],[0.5,0,0],[0.75,0,0],[1,0.25,0],[1,0.5,0],[1,0.75,0],[0.75,1,0],[0.5,1,0],[0.25,1,0],[0,0.75,0],[0,0.5,0],[0,0.25,0]];shape=mxgraph.bpmn.task;whiteSpace=wrap;rectStyle=rounded;size=10;html=1;container=1;expand=0;collapsible=0;taskMarker=abstract;isLoopSub=1;fontSize=9;" vertex="1" parent="Jbeqt2HLPeFKV9M9eCiw-28">
          <mxGeometry x="921" y="15" width="79" height="40" as="geometry" />
        </mxCell>
        <mxCell id="crRijYuh_1POvyGoVFcz-39" value="" style="points=[[0.145,0.145,0],[0.5,0,0],[0.855,0.145,0],[1,0.5,0],[0.855,0.855,0],[0.5,1,0],[0.145,0.855,0],[0,0.5,0]];shape=mxgraph.bpmn.event;html=1;verticalLabelPosition=bottom;labelBackgroundColor=#ffffff;verticalAlign=top;align=center;perimeter=ellipsePerimeter;outlineConnect=0;aspect=fixed;outline=standard;symbol=message;fillColor=#00FF00;" vertex="1" parent="Jbeqt2HLPeFKV9M9eCiw-28">
          <mxGeometry x="40.5" y="63.5" width="50" height="50" as="geometry" />
        </mxCell>
        <mxCell id="crRijYuh_1POvyGoVFcz-40" value="" style="points=[[0.25,0.25,0],[0.5,0,0],[0.75,0.25,0],[1,0.5,0],[0.75,0.75,0],[0.5,1,0],[0.25,0.75,0],[0,0.5,0]];shape=mxgraph.bpmn.gateway2;html=1;verticalLabelPosition=bottom;labelBackgroundColor=#ffffff;verticalAlign=top;align=center;perimeter=rhombusPerimeter;outlineConnect=0;outline=none;symbol=none;gwType=parallel;" vertex="1" parent="Jbeqt2HLPeFKV9M9eCiw-28">
          <mxGeometry x="265.5" y="63.5" width="50" height="50" as="geometry" />
        </mxCell>
        <mxCell id="crRijYuh_1POvyGoVFcz-42" value="" style="edgeStyle=elbowEdgeStyle;fontSize=12;html=1;endArrow=blockThin;endFill=1;rounded=0;entryX=0;entryY=0.5;entryDx=0;entryDy=0;entryPerimeter=0;exitX=1;exitY=0.5;exitDx=0;exitDy=0;exitPerimeter=0;" edge="1" parent="Jbeqt2HLPeFKV9M9eCiw-28" source="crRijYuh_1POvyGoVFcz-39" target="crRijYuh_1POvyGoVFcz-56">
          <mxGeometry width="160" relative="1" as="geometry">
            <mxPoint x="91" y="78.25999999999999" as="sourcePoint" />
            <mxPoint x="251" y="78.25999999999999" as="targetPoint" />
          </mxGeometry>
        </mxCell>
        <mxCell id="crRijYuh_1POvyGoVFcz-46" value="" style="edgeStyle=elbowEdgeStyle;fontSize=12;html=1;endArrow=blockThin;endFill=1;rounded=0;exitX=0.5;exitY=0;exitDx=0;exitDy=0;exitPerimeter=0;entryX=0;entryY=0.5;entryDx=0;entryDy=0;entryPerimeter=0;" edge="1" parent="Jbeqt2HLPeFKV9M9eCiw-28" source="crRijYuh_1POvyGoVFcz-40" target="crRijYuh_1POvyGoVFcz-118">
          <mxGeometry width="160" relative="1" as="geometry">
            <mxPoint x="315.5" y="88.08999999999997" as="sourcePoint" />
            <mxPoint x="411" y="30" as="targetPoint" />
            <Array as="points">
              <mxPoint x="290.5" y="50" />
            </Array>
          </mxGeometry>
        </mxCell>
        <mxCell id="crRijYuh_1POvyGoVFcz-55" value="" style="points=[[0.145,0.145,0],[0.5,0,0],[0.855,0.145,0],[1,0.5,0],[0.855,0.855,0],[0.5,1,0],[0.145,0.855,0],[0,0.5,0]];shape=mxgraph.bpmn.event;html=1;verticalLabelPosition=bottom;labelBackgroundColor=#ffffff;verticalAlign=top;align=center;perimeter=ellipsePerimeter;outlineConnect=0;aspect=fixed;outline=throwing;symbol=message;fillColor=#FF3333;" vertex="1" parent="Jbeqt2HLPeFKV9M9eCiw-28">
          <mxGeometry x="1081" y="10" width="50" height="50" as="geometry" />
        </mxCell>
        <mxCell id="crRijYuh_1POvyGoVFcz-56" value="" style="points=[[0.25,0.25,0],[0.5,0,0],[0.75,0.25,0],[1,0.5,0],[0.75,0.75,0],[0.5,1,0],[0.25,0.75,0],[0,0.5,0]];shape=mxgraph.bpmn.gateway2;html=1;verticalLabelPosition=bottom;labelBackgroundColor=#ffffff;verticalAlign=top;align=center;perimeter=rhombusPerimeter;outlineConnect=0;outline=end;symbol=general;" vertex="1" parent="Jbeqt2HLPeFKV9M9eCiw-28">
          <mxGeometry x="111" y="63.5" width="50" height="50" as="geometry" />
        </mxCell>
        <mxCell id="crRijYuh_1POvyGoVFcz-102" value="" style="edgeStyle=elbowEdgeStyle;fontSize=12;html=1;endArrow=blockThin;endFill=1;rounded=0;entryX=0;entryY=0.5;entryDx=0;entryDy=0;entryPerimeter=0;" edge="1" parent="Jbeqt2HLPeFKV9M9eCiw-28" target="crRijYuh_1POvyGoVFcz-40">
          <mxGeometry width="160" relative="1" as="geometry">
            <mxPoint x="161" y="88.16" as="sourcePoint" />
            <mxPoint x="321" y="88.16" as="targetPoint" />
          </mxGeometry>
        </mxCell>
        <mxCell id="crRijYuh_1POvyGoVFcz-118" value="" style="points=[[0.25,0.25,0],[0.5,0,0],[0.75,0.25,0],[1,0.5,0],[0.75,0.75,0],[0.5,1,0],[0.25,0.75,0],[0,0.5,0]];shape=mxgraph.bpmn.gateway2;html=1;verticalLabelPosition=bottom;labelBackgroundColor=#ffffff;verticalAlign=top;align=center;perimeter=rhombusPerimeter;outlineConnect=0;outline=end;symbol=general;" vertex="1" parent="Jbeqt2HLPeFKV9M9eCiw-28">
          <mxGeometry x="401" y="10" width="50" height="50" as="geometry" />
        </mxCell>
        <mxCell id="crRijYuh_1POvyGoVFcz-164" style="rounded=0;orthogonalLoop=1;jettySize=auto;html=1;exitX=1;exitY=0.5;exitDx=0;exitDy=0;exitPerimeter=0;entryX=0;entryY=0.5;entryDx=0;entryDy=0;entryPerimeter=0;" edge="1" parent="Jbeqt2HLPeFKV9M9eCiw-28" source="crRijYuh_1POvyGoVFcz-121" target="crRijYuh_1POvyGoVFcz-19">
          <mxGeometry relative="1" as="geometry" />
        </mxCell>
        <mxCell id="crRijYuh_1POvyGoVFcz-121" value="" style="points=[[0.25,0.25,0],[0.5,0,0],[0.75,0.25,0],[1,0.5,0],[0.75,0.75,0],[0.5,1,0],[0.25,0.75,0],[0,0.5,0]];shape=mxgraph.bpmn.gateway2;html=1;verticalLabelPosition=bottom;labelBackgroundColor=#ffffff;verticalAlign=top;align=center;perimeter=rhombusPerimeter;outlineConnect=0;outline=end;symbol=general;" vertex="1" parent="Jbeqt2HLPeFKV9M9eCiw-28">
          <mxGeometry x="761" y="10" width="50" height="50" as="geometry" />
        </mxCell>
        <mxCell id="crRijYuh_1POvyGoVFcz-124" style="edgeStyle=orthogonalEdgeStyle;rounded=0;orthogonalLoop=1;jettySize=auto;html=1;exitX=0.5;exitY=1;exitDx=0;exitDy=0;exitPerimeter=0;" edge="1" parent="Jbeqt2HLPeFKV9M9eCiw-28" source="crRijYuh_1POvyGoVFcz-125" target="crRijYuh_1POvyGoVFcz-28">
          <mxGeometry relative="1" as="geometry">
            <mxPoint x="1045.9999999999995" y="51" as="sourcePoint" />
          </mxGeometry>
        </mxCell>
        <mxCell id="crRijYuh_1POvyGoVFcz-130" style="edgeStyle=orthogonalEdgeStyle;rounded=0;orthogonalLoop=1;jettySize=auto;html=1;exitX=0;exitY=0.5;exitDx=0;exitDy=0;exitPerimeter=0;entryX=1;entryY=0.5;entryDx=0;entryDy=0;entryPerimeter=0;" edge="1" parent="Jbeqt2HLPeFKV9M9eCiw-28" source="crRijYuh_1POvyGoVFcz-28" target="crRijYuh_1POvyGoVFcz-54">
          <mxGeometry relative="1" as="geometry" />
        </mxCell>
        <mxCell id="crRijYuh_1POvyGoVFcz-28" value="Корректировка" style="points=[[0.25,0,0],[0.5,0,0],[0.75,0,0],[1,0.25,0],[1,0.5,0],[1,0.75,0],[0.75,1,0],[0.5,1,0],[0.25,1,0],[0,0.75,0],[0,0.5,0],[0,0.25,0]];shape=mxgraph.bpmn.task;whiteSpace=wrap;rectStyle=rounded;size=10;html=1;container=1;expand=0;collapsible=0;taskMarker=abstract;isLoopSub=1;fontSize=9;" vertex="1" parent="Jbeqt2HLPeFKV9M9eCiw-28">
          <mxGeometry x="1006.5" y="73.5" width="79" height="40" as="geometry" />
        </mxCell>
        <mxCell id="crRijYuh_1POvyGoVFcz-54" value="" style="points=[[0.25,0.25,0],[0.5,0,0],[0.75,0.25,0],[1,0.5,0],[0.75,0.75,0],[0.5,1,0],[0.25,0.75,0],[0,0.5,0]];shape=mxgraph.bpmn.gateway2;html=1;verticalLabelPosition=bottom;labelBackgroundColor=#ffffff;verticalAlign=top;align=center;perimeter=rhombusPerimeter;outlineConnect=0;outline=none;symbol=none;gwType=parallel;" vertex="1" parent="Jbeqt2HLPeFKV9M9eCiw-28">
          <mxGeometry x="761" y="68.5" width="50" height="50" as="geometry" />
        </mxCell>
        <mxCell id="crRijYuh_1POvyGoVFcz-128" style="edgeStyle=orthogonalEdgeStyle;rounded=0;orthogonalLoop=1;jettySize=auto;html=1;exitX=1;exitY=0.5;exitDx=0;exitDy=0;exitPerimeter=0;entryX=0;entryY=0.5;entryDx=0;entryDy=0;entryPerimeter=0;" edge="1" parent="Jbeqt2HLPeFKV9M9eCiw-28" source="crRijYuh_1POvyGoVFcz-125" target="crRijYuh_1POvyGoVFcz-55">
          <mxGeometry relative="1" as="geometry" />
        </mxCell>
        <mxCell id="crRijYuh_1POvyGoVFcz-125" value="" style="points=[[0.25,0.25,0],[0.5,0,0],[0.75,0.25,0],[1,0.5,0],[0.75,0.75,0],[0.5,1,0],[0.25,0.75,0],[0,0.5,0]];shape=mxgraph.bpmn.gateway2;html=1;verticalLabelPosition=bottom;labelBackgroundColor=#ffffff;verticalAlign=top;align=center;perimeter=rhombusPerimeter;outlineConnect=0;outline=end;symbol=general;" vertex="1" parent="Jbeqt2HLPeFKV9M9eCiw-28">
          <mxGeometry x="1021" y="10" width="50" height="50" as="geometry" />
        </mxCell>
        <mxCell id="crRijYuh_1POvyGoVFcz-126" value="&lt;font style=&quot;font-size: 9px;&quot;&gt;Не согласован&lt;/font&gt;" style="text;html=1;strokeColor=none;fillColor=none;align=center;verticalAlign=middle;whiteSpace=wrap;rounded=0;" vertex="1" parent="Jbeqt2HLPeFKV9M9eCiw-28">
          <mxGeometry x="977" y="61" width="70" as="geometry" />
        </mxCell>
        <mxCell id="crRijYuh_1POvyGoVFcz-129" value="&lt;font style=&quot;font-size: 9px;&quot;&gt;Согласован&lt;/font&gt;" style="text;html=1;strokeColor=none;fillColor=none;align=center;verticalAlign=middle;whiteSpace=wrap;rounded=0;" vertex="1" parent="Jbeqt2HLPeFKV9M9eCiw-28">
          <mxGeometry x="999" y="5" width="40" as="geometry" />
        </mxCell>
        <mxCell id="crRijYuh_1POvyGoVFcz-127" value="&lt;font style=&quot;font-size: 9px;&quot;&gt;Утверждён&lt;/font&gt;" style="text;html=1;strokeColor=none;fillColor=none;align=center;verticalAlign=middle;whiteSpace=wrap;rounded=0;" vertex="1" parent="Jbeqt2HLPeFKV9M9eCiw-28">
          <mxGeometry x="1039" y="7" width="70" as="geometry" />
        </mxCell>
        <mxCell id="crRijYuh_1POvyGoVFcz-123" style="edgeStyle=orthogonalEdgeStyle;rounded=0;orthogonalLoop=1;jettySize=auto;html=1;exitX=0.5;exitY=0;exitDx=0;exitDy=0;exitPerimeter=0;entryX=0.5;entryY=1;entryDx=0;entryDy=0;entryPerimeter=0;" edge="1" parent="Jbeqt2HLPeFKV9M9eCiw-30" source="crRijYuh_1POvyGoVFcz-125">
          <mxGeometry relative="1" as="geometry">
            <mxPoint x="1045.9999999999995" y="-119" as="sourcePoint" />
            <mxPoint x="1046" y="-152.5" as="targetPoint" />
          </mxGeometry>
        </mxCell>
        <mxCell id="crRijYuh_1POvyGoVFcz-60" value="" style="edgeStyle=elbowEdgeStyle;fontSize=12;html=1;endArrow=blockThin;endFill=1;rounded=0;entryX=0;entryY=0.5;entryDx=0;entryDy=0;entryPerimeter=0;exitX=0.5;exitY=1;exitDx=0;exitDy=0;exitPerimeter=0;" edge="1" parent="Jbeqt2HLPeFKV9M9eCiw-30" source="crRijYuh_1POvyGoVFcz-40" target="crRijYuh_1POvyGoVFcz-58">
          <mxGeometry width="160" relative="1" as="geometry">
            <mxPoint x="290.5" y="-60" as="sourcePoint" />
            <mxPoint x="330.5" y="30" as="targetPoint" />
            <Array as="points">
              <mxPoint x="290.5" y="20" />
            </Array>
          </mxGeometry>
        </mxCell>
        <mxCell id="crRijYuh_1POvyGoVFcz-59" value="" style="edgeStyle=elbowEdgeStyle;fontSize=12;html=1;endArrow=blockThin;endFill=1;rounded=0;exitX=0.5;exitY=1;exitDx=0;exitDy=0;exitPerimeter=0;entryX=0;entryY=0.5;entryDx=0;entryDy=0;entryPerimeter=0;" edge="1" parent="Jbeqt2HLPeFKV9M9eCiw-30" source="crRijYuh_1POvyGoVFcz-40" target="crRijYuh_1POvyGoVFcz-57">
          <mxGeometry width="160" relative="1" as="geometry">
            <mxPoint x="175.5" y="-20" as="sourcePoint" />
            <mxPoint x="335.5" y="-20" as="targetPoint" />
            <Array as="points">
              <mxPoint x="290.5" y="-10" />
            </Array>
          </mxGeometry>
        </mxCell>
        <mxCell id="crRijYuh_1POvyGoVFcz-195" style="edgeStyle=orthogonalEdgeStyle;rounded=0;orthogonalLoop=1;jettySize=auto;html=1;entryX=0;entryY=0.5;entryDx=0;entryDy=0;entryPerimeter=0;exitX=1;exitY=0.5;exitDx=0;exitDy=0;exitPerimeter=0;" edge="1" parent="Jbeqt2HLPeFKV9M9eCiw-30" source="Jbeqt2HLPeFKV9M9eCiw-42" target="crRijYuh_1POvyGoVFcz-121">
          <mxGeometry relative="1" as="geometry">
            <mxPoint x="761" y="-160" as="targetPoint" />
            <Array as="points">
              <mxPoint x="721" y="30" />
              <mxPoint x="721" y="-85" />
            </Array>
          </mxGeometry>
        </mxCell>
        <mxCell id="crRijYuh_1POvyGoVFcz-196" style="edgeStyle=orthogonalEdgeStyle;rounded=0;orthogonalLoop=1;jettySize=auto;html=1;exitX=1;exitY=0.5;exitDx=0;exitDy=0;exitPerimeter=0;entryX=0;entryY=0.5;entryDx=0;entryDy=0;entryPerimeter=0;" edge="1" parent="Jbeqt2HLPeFKV9M9eCiw-30" source="crRijYuh_1POvyGoVFcz-18" target="crRijYuh_1POvyGoVFcz-121">
          <mxGeometry relative="1" as="geometry">
            <mxPoint x="731" y="-120" as="targetPoint" />
            <Array as="points">
              <mxPoint x="721" y="80" />
              <mxPoint x="721" y="-85" />
            </Array>
          </mxGeometry>
        </mxCell>
        <mxCell id="Jbeqt2HLPeFKV9M9eCiw-31" value="Логистика" style="swimlane;html=1;startSize=31;horizontal=0;whiteSpace=wrap;fontSize=9;" parent="Jbeqt2HLPeFKV9M9eCiw-30" vertex="1">
          <mxGeometry y="121" width="1140" height="109" as="geometry" />
        </mxCell>
        <mxCell id="crRijYuh_1POvyGoVFcz-157" style="edgeStyle=orthogonalEdgeStyle;rounded=0;orthogonalLoop=1;jettySize=auto;html=1;exitX=1;exitY=0.25;exitDx=0;exitDy=0;exitPerimeter=0;entryX=0.013;entryY=0.568;entryDx=0;entryDy=0;entryPerimeter=0;" edge="1" parent="Jbeqt2HLPeFKV9M9eCiw-31" source="Jbeqt2HLPeFKV9M9eCiw-48" target="crRijYuh_1POvyGoVFcz-44">
          <mxGeometry relative="1" as="geometry" />
        </mxCell>
        <mxCell id="Jbeqt2HLPeFKV9M9eCiw-48" value="&lt;div&gt;План завоза/вывоза&lt;/div&gt;&lt;div&gt;(исполнение контрактов&lt;br&gt;&lt;/div&gt;" style="points=[[0.25,0,0],[0.5,0,0],[0.75,0,0],[1,0.25,0],[1,0.5,0],[1,0.75,0],[0.75,1,0],[0.5,1,0],[0.25,1,0],[0,0.75,0],[0,0.5,0],[0,0.25,0]];shape=mxgraph.bpmn.task;whiteSpace=wrap;rectStyle=rounded;size=10;html=1;container=1;expand=0;collapsible=0;taskMarker=abstract;isLoopSub=1;fontSize=9;" parent="Jbeqt2HLPeFKV9M9eCiw-31" vertex="1">
          <mxGeometry x="315.5" y="10" width="74.5" height="90" as="geometry" />
        </mxCell>
        <mxCell id="crRijYuh_1POvyGoVFcz-137" style="edgeStyle=orthogonalEdgeStyle;rounded=0;orthogonalLoop=1;jettySize=auto;html=1;" edge="1" parent="Jbeqt2HLPeFKV9M9eCiw-31" source="crRijYuh_1POvyGoVFcz-44" target="crRijYuh_1POvyGoVFcz-47">
          <mxGeometry relative="1" as="geometry" />
        </mxCell>
        <mxCell id="crRijYuh_1POvyGoVFcz-44" value="Согласование с генеральным директором" style="points=[[0.25,0,0],[0.5,0,0],[0.75,0,0],[1,0.25,0],[1,0.5,0],[1,0.75,0],[0.75,1,0],[0.5,1,0],[0.25,1,0],[0,0.75,0],[0,0.5,0],[0,0.25,0]];shape=mxgraph.bpmn.task;whiteSpace=wrap;rectStyle=rounded;size=10;html=1;container=1;expand=0;collapsible=0;taskMarker=abstract;isLoopSub=1;fontSize=9;" vertex="1" parent="Jbeqt2HLPeFKV9M9eCiw-31">
          <mxGeometry x="401" y="10" width="79" height="40" as="geometry" />
        </mxCell>
        <mxCell id="crRijYuh_1POvyGoVFcz-158" style="edgeStyle=orthogonalEdgeStyle;rounded=0;orthogonalLoop=1;jettySize=auto;html=1;exitX=0;exitY=0.5;exitDx=0;exitDy=0;exitPerimeter=0;entryX=0.991;entryY=0.778;entryDx=0;entryDy=0;entryPerimeter=0;" edge="1" parent="Jbeqt2HLPeFKV9M9eCiw-31" source="crRijYuh_1POvyGoVFcz-45" target="Jbeqt2HLPeFKV9M9eCiw-48">
          <mxGeometry relative="1" as="geometry" />
        </mxCell>
        <mxCell id="crRijYuh_1POvyGoVFcz-45" value="Корректировка" style="points=[[0.25,0,0],[0.5,0,0],[0.75,0,0],[1,0.25,0],[1,0.5,0],[1,0.75,0],[0.75,1,0],[0.5,1,0],[0.25,1,0],[0,0.75,0],[0,0.5,0],[0,0.25,0]];shape=mxgraph.bpmn.task;whiteSpace=wrap;rectStyle=rounded;size=10;html=1;container=1;expand=0;collapsible=0;taskMarker=abstract;isLoopSub=1;fontSize=9;" vertex="1" parent="Jbeqt2HLPeFKV9M9eCiw-31">
          <mxGeometry x="401" y="60" width="79" height="40" as="geometry" />
        </mxCell>
        <mxCell id="crRijYuh_1POvyGoVFcz-138" style="edgeStyle=orthogonalEdgeStyle;rounded=0;orthogonalLoop=1;jettySize=auto;html=1;entryX=1;entryY=0.5;entryDx=0;entryDy=0;entryPerimeter=0;exitX=0.5;exitY=1;exitDx=0;exitDy=0;exitPerimeter=0;" edge="1" parent="Jbeqt2HLPeFKV9M9eCiw-31" source="crRijYuh_1POvyGoVFcz-47" target="crRijYuh_1POvyGoVFcz-45">
          <mxGeometry relative="1" as="geometry" />
        </mxCell>
        <mxCell id="crRijYuh_1POvyGoVFcz-47" value="" style="points=[[0.25,0.25,0],[0.5,0,0],[0.75,0.25,0],[1,0.5,0],[0.75,0.75,0],[0.5,1,0],[0.25,0.75,0],[0,0.5,0]];shape=mxgraph.bpmn.gateway2;html=1;verticalLabelPosition=bottom;labelBackgroundColor=#ffffff;verticalAlign=top;align=center;perimeter=rhombusPerimeter;outlineConnect=0;outline=none;symbol=none;gwType=exclusive;" vertex="1" parent="Jbeqt2HLPeFKV9M9eCiw-31">
          <mxGeometry x="501" y="5" width="50" height="50" as="geometry" />
        </mxCell>
        <mxCell id="crRijYuh_1POvyGoVFcz-63" value="" style="points=[[0.145,0.145,0],[0.5,0,0],[0.855,0.145,0],[1,0.5,0],[0.855,0.855,0],[0.5,1,0],[0.145,0.855,0],[0,0.5,0]];shape=mxgraph.bpmn.event;html=1;verticalLabelPosition=bottom;labelBackgroundColor=#ffffff;verticalAlign=top;align=center;perimeter=ellipsePerimeter;outlineConnect=0;aspect=fixed;outline=standard;symbol=message;" vertex="1" parent="Jbeqt2HLPeFKV9M9eCiw-31">
          <mxGeometry x="41" y="55" width="50" height="50" as="geometry" />
        </mxCell>
        <mxCell id="crRijYuh_1POvyGoVFcz-78" value="" style="edgeStyle=elbowEdgeStyle;fontSize=12;html=1;endFill=0;startFill=0;endSize=6;startSize=6;dashed=1;dashPattern=1 4;endArrow=none;startArrow=none;rounded=0;" edge="1" parent="Jbeqt2HLPeFKV9M9eCiw-31">
          <mxGeometry width="160" relative="1" as="geometry">
            <mxPoint x="141" y="156" as="sourcePoint" />
            <mxPoint x="181" y="156.32" as="targetPoint" />
          </mxGeometry>
        </mxCell>
        <mxCell id="crRijYuh_1POvyGoVFcz-82" value="" style="edgeStyle=elbowEdgeStyle;fontSize=12;html=1;endFill=0;startFill=0;endSize=6;startSize=6;dashed=1;dashPattern=1 4;endArrow=none;startArrow=none;rounded=0;" edge="1" parent="Jbeqt2HLPeFKV9M9eCiw-31">
          <mxGeometry width="160" relative="1" as="geometry">
            <mxPoint x="141" y="266.32000000000005" as="sourcePoint" />
            <mxPoint x="181" y="266.32000000000005" as="targetPoint" />
          </mxGeometry>
        </mxCell>
        <mxCell id="crRijYuh_1POvyGoVFcz-84" value="&lt;p style=&quot;line-height: 70%;&quot;&gt;&lt;font style=&quot;font-size: 9px;&quot;&gt;Факт работ, расхода материалов, пололнения запсов и т.д.&lt;br&gt;&lt;/font&gt;&lt;/p&gt;" style="text;html=1;strokeColor=none;fillColor=none;align=center;verticalAlign=middle;whiteSpace=wrap;rounded=0;" vertex="1" parent="Jbeqt2HLPeFKV9M9eCiw-31">
          <mxGeometry x="141" y="275" width="95" height="55" as="geometry" />
        </mxCell>
        <mxCell id="crRijYuh_1POvyGoVFcz-65" value="" style="group;fontSize=9;" vertex="1" connectable="0" parent="Jbeqt2HLPeFKV9M9eCiw-31">
          <mxGeometry x="131" y="10" width="95" height="80" as="geometry" />
        </mxCell>
        <mxCell id="crRijYuh_1POvyGoVFcz-66" value="" style="edgeStyle=elbowEdgeStyle;fontSize=12;html=1;endFill=0;startFill=0;endSize=6;startSize=6;dashed=1;dashPattern=1 4;endArrow=none;startArrow=none;rounded=0;" edge="1" parent="crRijYuh_1POvyGoVFcz-65">
          <mxGeometry width="160" relative="1" as="geometry">
            <mxPoint x="10" y="31.32" as="sourcePoint" />
            <mxPoint x="50" y="31.32" as="targetPoint" />
          </mxGeometry>
        </mxCell>
        <mxCell id="crRijYuh_1POvyGoVFcz-67" value="" style="group" vertex="1" connectable="0" parent="crRijYuh_1POvyGoVFcz-65">
          <mxGeometry width="95" height="80" as="geometry" />
        </mxCell>
        <mxCell id="crRijYuh_1POvyGoVFcz-69" value="&lt;p style=&quot;line-height: 70%;&quot;&gt;&lt;font style=&quot;font-size: 9px;&quot;&gt;Факт перевалки по клиентам&lt;br&gt;(Исполнение завоза-вывоза)&lt;/font&gt;&lt;/p&gt;" style="text;html=1;strokeColor=none;fillColor=none;align=center;verticalAlign=middle;whiteSpace=wrap;rounded=0;" vertex="1" parent="crRijYuh_1POvyGoVFcz-67">
          <mxGeometry x="10" y="40" width="95" height="40" as="geometry" />
        </mxCell>
        <mxCell id="crRijYuh_1POvyGoVFcz-89" value="" style="edgeStyle=elbowEdgeStyle;fontSize=12;html=1;endArrow=blockThin;endFill=1;rounded=0;entryX=0.5;entryY=1;entryDx=0;entryDy=0;entryPerimeter=0;" edge="1" parent="Jbeqt2HLPeFKV9M9eCiw-31" target="crRijYuh_1POvyGoVFcz-56">
          <mxGeometry width="160" relative="1" as="geometry">
            <mxPoint x="91" y="190" as="sourcePoint" />
            <mxPoint x="251" y="190" as="targetPoint" />
            <Array as="points">
              <mxPoint x="136" y="40" />
            </Array>
          </mxGeometry>
        </mxCell>
        <mxCell id="crRijYuh_1POvyGoVFcz-90" value="" style="edgeStyle=elbowEdgeStyle;fontSize=12;html=1;endArrow=blockThin;endFill=1;rounded=0;entryX=0.5;entryY=1;entryDx=0;entryDy=0;entryPerimeter=0;" edge="1" parent="Jbeqt2HLPeFKV9M9eCiw-31" target="crRijYuh_1POvyGoVFcz-56">
          <mxGeometry width="160" relative="1" as="geometry">
            <mxPoint x="91" y="79.5" as="sourcePoint" />
            <mxPoint x="251" y="79.5" as="targetPoint" />
            <Array as="points">
              <mxPoint x="136" y="-20" />
            </Array>
          </mxGeometry>
        </mxCell>
        <mxCell id="crRijYuh_1POvyGoVFcz-93" value="" style="shape=mxgraph.bpmn.data;labelPosition=center;verticalLabelPosition=bottom;align=center;verticalAlign=top;size=15;html=1;bpmnTransferType=output;isCollection=1;fillColor=#66FFFF;" vertex="1" parent="Jbeqt2HLPeFKV9M9eCiw-31">
          <mxGeometry x="181" y="130" width="29" height="40" as="geometry" />
        </mxCell>
        <mxCell id="crRijYuh_1POvyGoVFcz-81" value="&lt;p style=&quot;line-height: 70%;&quot;&gt;&lt;font style=&quot;font-size: 9px;&quot;&gt;Факт перевалки по грузам&lt;br&gt;(Выполнение перевалки по номенклатуре))&lt;/font&gt;&lt;/p&gt;" style="text;html=1;strokeColor=none;fillColor=none;align=center;verticalAlign=middle;whiteSpace=wrap;rounded=0;" vertex="1" parent="Jbeqt2HLPeFKV9M9eCiw-31">
          <mxGeometry x="141" y="165" width="95" height="55" as="geometry" />
        </mxCell>
        <mxCell id="crRijYuh_1POvyGoVFcz-99" value="" style="shape=mxgraph.bpmn.data;labelPosition=center;verticalLabelPosition=bottom;align=center;verticalAlign=top;size=15;html=1;bpmnTransferType=output;isCollection=1;fillColor=#66FFFF;" vertex="1" parent="Jbeqt2HLPeFKV9M9eCiw-31">
          <mxGeometry x="171" y="10" width="29" height="40" as="geometry" />
        </mxCell>
        <mxCell id="crRijYuh_1POvyGoVFcz-100" value="" style="shape=datastore;html=1;labelPosition=center;verticalLabelPosition=bottom;align=center;verticalAlign=top;fillColor=#66FFFF;" vertex="1" parent="Jbeqt2HLPeFKV9M9eCiw-31">
          <mxGeometry x="239" y="10" width="40" height="45" as="geometry" />
        </mxCell>
        <mxCell id="crRijYuh_1POvyGoVFcz-147" style="edgeStyle=orthogonalEdgeStyle;rounded=0;orthogonalLoop=1;jettySize=auto;html=1;exitX=1;exitY=0.25;exitDx=0;exitDy=0;exitPerimeter=0;entryX=0.018;entryY=0.563;entryDx=0;entryDy=0;entryPerimeter=0;" edge="1" parent="Jbeqt2HLPeFKV9M9eCiw-31" source="Jbeqt2HLPeFKV9M9eCiw-39" target="crRijYuh_1POvyGoVFcz-16">
          <mxGeometry relative="1" as="geometry" />
        </mxCell>
        <mxCell id="Jbeqt2HLPeFKV9M9eCiw-39" value="&lt;div&gt;План перевалки&lt;/div&gt;&lt;div&gt;(реализация)&lt;br&gt;&lt;/div&gt;" style="points=[[0.25,0,0],[0.5,0,0],[0.75,0,0],[1,0.25,0],[1,0.5,0],[1,0.75,0],[0.75,1,0],[0.5,1,0],[0.25,1,0],[0,0.75,0],[0,0.5,0],[0,0.25,0]];shape=mxgraph.bpmn.task;whiteSpace=wrap;rectStyle=rounded;size=10;html=1;container=1;expand=0;collapsible=0;taskMarker=abstract;isLoopSub=1;fontSize=9;" parent="Jbeqt2HLPeFKV9M9eCiw-31" vertex="1">
          <mxGeometry x="315.5" y="120" width="74.5" height="90" as="geometry" />
        </mxCell>
        <mxCell id="crRijYuh_1POvyGoVFcz-16" value="Согласование с логистикой" style="points=[[0.25,0,0],[0.5,0,0],[0.75,0,0],[1,0.25,0],[1,0.5,0],[1,0.75,0],[0.75,1,0],[0.5,1,0],[0.25,1,0],[0,0.75,0],[0,0.5,0],[0,0.25,0]];shape=mxgraph.bpmn.task;whiteSpace=wrap;rectStyle=rounded;size=10;html=1;container=1;expand=0;collapsible=0;taskMarker=abstract;isLoopSub=1;fontSize=9;" vertex="1" parent="Jbeqt2HLPeFKV9M9eCiw-31">
          <mxGeometry x="401" y="120" width="79" height="40" as="geometry" />
        </mxCell>
        <mxCell id="crRijYuh_1POvyGoVFcz-145" style="rounded=0;orthogonalLoop=1;jettySize=auto;html=1;entryX=0.981;entryY=0.775;entryDx=0;entryDy=0;entryPerimeter=0;" edge="1" parent="Jbeqt2HLPeFKV9M9eCiw-31" source="crRijYuh_1POvyGoVFcz-17" target="Jbeqt2HLPeFKV9M9eCiw-39">
          <mxGeometry relative="1" as="geometry" />
        </mxCell>
        <mxCell id="crRijYuh_1POvyGoVFcz-17" value="Корректировка" style="points=[[0.25,0,0],[0.5,0,0],[0.75,0,0],[1,0.25,0],[1,0.5,0],[1,0.75,0],[0.75,1,0],[0.5,1,0],[0.25,1,0],[0,0.75,0],[0,0.5,0],[0,0.25,0]];shape=mxgraph.bpmn.task;whiteSpace=wrap;rectStyle=rounded;size=10;html=1;container=1;expand=0;collapsible=0;taskMarker=abstract;isLoopSub=1;fontSize=9;" vertex="1" parent="Jbeqt2HLPeFKV9M9eCiw-31">
          <mxGeometry x="401" y="170" width="79" height="40" as="geometry" />
        </mxCell>
        <mxCell id="crRijYuh_1POvyGoVFcz-13" value="Согласование с эксплуатацией" style="points=[[0.25,0,0],[0.5,0,0],[0.75,0,0],[1,0.25,0],[1,0.5,0],[1,0.75,0],[0.75,1,0],[0.5,1,0],[0.25,1,0],[0,0.75,0],[0,0.5,0],[0,0.25,0]];shape=mxgraph.bpmn.task;whiteSpace=wrap;rectStyle=rounded;size=10;html=1;container=1;expand=0;collapsible=0;taskMarker=abstract;isLoopSub=1;fontSize=9;" vertex="1" parent="Jbeqt2HLPeFKV9M9eCiw-31">
          <mxGeometry x="401" y="230" width="79" height="40" as="geometry" />
        </mxCell>
        <mxCell id="crRijYuh_1POvyGoVFcz-15" value="&lt;div&gt;Корректировка&lt;/div&gt;" style="points=[[0.25,0,0],[0.5,0,0],[0.75,0,0],[1,0.25,0],[1,0.5,0],[1,0.75,0],[0.75,1,0],[0.5,1,0],[0.25,1,0],[0,0.75,0],[0,0.5,0],[0,0.25,0]];shape=mxgraph.bpmn.task;whiteSpace=wrap;rectStyle=rounded;size=10;html=1;container=1;expand=0;collapsible=0;taskMarker=abstract;isLoopSub=1;fontSize=9;" vertex="1" parent="Jbeqt2HLPeFKV9M9eCiw-31">
          <mxGeometry x="401" y="280" width="79" height="40" as="geometry" />
        </mxCell>
        <mxCell id="crRijYuh_1POvyGoVFcz-176" value="&lt;font style=&quot;font-size: 9px;&quot;&gt;Согласован&lt;/font&gt;" style="text;html=1;strokeColor=none;fillColor=none;align=center;verticalAlign=middle;whiteSpace=wrap;rounded=0;" vertex="1" parent="Jbeqt2HLPeFKV9M9eCiw-31">
          <mxGeometry x="571" y="27.5" width="40" as="geometry" />
        </mxCell>
        <mxCell id="crRijYuh_1POvyGoVFcz-177" value="&lt;font style=&quot;font-size: 9px;&quot;&gt;Не согласован&lt;br&gt;&lt;/font&gt;" style="text;html=1;strokeColor=none;fillColor=none;align=center;verticalAlign=middle;whiteSpace=wrap;rounded=0;" vertex="1" parent="Jbeqt2HLPeFKV9M9eCiw-31">
          <mxGeometry x="480" y="70" width="63" as="geometry" />
        </mxCell>
        <mxCell id="Jbeqt2HLPeFKV9M9eCiw-29" value="Эксплуатация" style="swimlane;html=1;startSize=31;horizontal=0;whiteSpace=wrap;fontSize=9;" parent="Jbeqt2HLPeFKV9M9eCiw-31" vertex="1">
          <mxGeometry y="110" width="1140" height="110" as="geometry" />
        </mxCell>
        <mxCell id="crRijYuh_1POvyGoVFcz-49" value="" style="points=[[0.25,0.25,0],[0.5,0,0],[0.75,0.25,0],[1,0.5,0],[0.75,0.75,0],[0.5,1,0],[0.25,0.75,0],[0,0.5,0]];shape=mxgraph.bpmn.gateway2;html=1;verticalLabelPosition=bottom;labelBackgroundColor=#ffffff;verticalAlign=top;align=center;perimeter=rhombusPerimeter;outlineConnect=0;outline=none;symbol=none;gwType=exclusive;" vertex="1" parent="Jbeqt2HLPeFKV9M9eCiw-29">
          <mxGeometry x="501" y="5" width="50" height="50" as="geometry" />
        </mxCell>
        <mxCell id="crRijYuh_1POvyGoVFcz-62" value="" style="points=[[0.145,0.145,0],[0.5,0,0],[0.855,0.145,0],[1,0.5,0],[0.855,0.855,0],[0.5,1,0],[0.145,0.855,0],[0,0.5,0]];shape=mxgraph.bpmn.event;html=1;verticalLabelPosition=bottom;labelBackgroundColor=#ffffff;verticalAlign=top;align=center;perimeter=ellipsePerimeter;outlineConnect=0;aspect=fixed;outline=standard;symbol=message;" vertex="1" parent="Jbeqt2HLPeFKV9M9eCiw-29">
          <mxGeometry x="41" y="55" width="50" height="50" as="geometry" />
        </mxCell>
        <mxCell id="crRijYuh_1POvyGoVFcz-186" value="&lt;font style=&quot;font-size: 9px;&quot;&gt;Согласован&lt;/font&gt;" style="text;html=1;strokeColor=none;fillColor=none;align=center;verticalAlign=middle;whiteSpace=wrap;rounded=0;" vertex="1" parent="Jbeqt2HLPeFKV9M9eCiw-29">
          <mxGeometry x="571" y="30" width="40" as="geometry" />
        </mxCell>
        <mxCell id="crRijYuh_1POvyGoVFcz-188" value="&lt;font style=&quot;font-size: 9px;&quot;&gt;Не согласован&lt;br&gt;&lt;/font&gt;" style="text;html=1;strokeColor=none;fillColor=none;align=center;verticalAlign=middle;whiteSpace=wrap;rounded=0;" vertex="1" parent="Jbeqt2HLPeFKV9M9eCiw-29">
          <mxGeometry x="481" y="70" width="63" as="geometry" />
        </mxCell>
        <mxCell id="crRijYuh_1POvyGoVFcz-3" value="Прочие подразделения" style="swimlane;html=1;startSize=31;horizontal=0;whiteSpace=wrap;fontSize=9;" vertex="1" parent="Jbeqt2HLPeFKV9M9eCiw-29">
          <mxGeometry y="110" width="1140" height="110" as="geometry" />
        </mxCell>
        <mxCell id="crRijYuh_1POvyGoVFcz-11" value="Планы ремонтов&lt;br&gt;Планы строительства&lt;br&gt;&lt;div&gt;Планы выхода персонала&lt;/div&gt;&lt;div&gt;и т.д.&lt;/div&gt;" style="points=[[0.25,0,0],[0.5,0,0],[0.75,0,0],[1,0.25,0],[1,0.5,0],[1,0.75,0],[0.75,1,0],[0.5,1,0],[0.25,1,0],[0,0.75,0],[0,0.5,0],[0,0.25,0]];shape=mxgraph.bpmn.task;whiteSpace=wrap;rectStyle=rounded;size=10;html=1;container=1;expand=0;collapsible=0;taskMarker=abstract;isLoopSub=1;fontSize=9;" vertex="1" parent="crRijYuh_1POvyGoVFcz-3">
          <mxGeometry x="315.5" y="10" width="74.5" height="90" as="geometry" />
        </mxCell>
        <mxCell id="crRijYuh_1POvyGoVFcz-50" value="" style="points=[[0.25,0.25,0],[0.5,0,0],[0.75,0.25,0],[1,0.5,0],[0.75,0.75,0],[0.5,1,0],[0.25,0.75,0],[0,0.5,0]];shape=mxgraph.bpmn.gateway2;html=1;verticalLabelPosition=bottom;labelBackgroundColor=#ffffff;verticalAlign=top;align=center;perimeter=rhombusPerimeter;outlineConnect=0;outline=none;symbol=none;gwType=exclusive;" vertex="1" parent="crRijYuh_1POvyGoVFcz-3">
          <mxGeometry x="501" y="5" width="50" height="50" as="geometry" />
        </mxCell>
        <mxCell id="crRijYuh_1POvyGoVFcz-64" value="" style="points=[[0.145,0.145,0],[0.5,0,0],[0.855,0.145,0],[1,0.5,0],[0.855,0.855,0],[0.5,1,0],[0.145,0.855,0],[0,0.5,0]];shape=mxgraph.bpmn.event;html=1;verticalLabelPosition=bottom;labelBackgroundColor=#ffffff;verticalAlign=top;align=center;perimeter=ellipsePerimeter;outlineConnect=0;aspect=fixed;outline=standard;symbol=message;" vertex="1" parent="crRijYuh_1POvyGoVFcz-3">
          <mxGeometry x="41" y="55" width="50" height="50" as="geometry" />
        </mxCell>
        <mxCell id="crRijYuh_1POvyGoVFcz-88" value="" style="edgeStyle=elbowEdgeStyle;fontSize=12;html=1;endArrow=blockThin;endFill=1;rounded=0;entryX=0.5;entryY=1;entryDx=0;entryDy=0;entryPerimeter=0;" edge="1" parent="crRijYuh_1POvyGoVFcz-3" target="crRijYuh_1POvyGoVFcz-56">
          <mxGeometry width="160" relative="1" as="geometry">
            <mxPoint x="91" y="80" as="sourcePoint" />
            <mxPoint x="111" y="-250" as="targetPoint" />
            <Array as="points">
              <mxPoint x="136" y="-130" />
            </Array>
          </mxGeometry>
        </mxCell>
        <mxCell id="crRijYuh_1POvyGoVFcz-92" value="" style="shape=datastore;html=1;labelPosition=center;verticalLabelPosition=bottom;align=center;verticalAlign=top;fillColor=#99FFFF;" vertex="1" parent="crRijYuh_1POvyGoVFcz-3">
          <mxGeometry x="240" y="15" width="40" height="45" as="geometry" />
        </mxCell>
        <mxCell id="crRijYuh_1POvyGoVFcz-95" value="" style="shape=mxgraph.bpmn.data;labelPosition=center;verticalLabelPosition=bottom;align=center;verticalAlign=top;size=15;html=1;bpmnTransferType=output;isCollection=1;fillColor=#66FFFF;" vertex="1" parent="crRijYuh_1POvyGoVFcz-3">
          <mxGeometry x="181" y="20" width="29" height="40" as="geometry" />
        </mxCell>
        <mxCell id="crRijYuh_1POvyGoVFcz-98" value="" style="edgeStyle=elbowEdgeStyle;fontSize=12;html=1;endArrow=blockThin;endFill=1;rounded=0;exitX=0;exitY=0.5;exitDx=0;exitDy=0;" edge="1" parent="crRijYuh_1POvyGoVFcz-3">
          <mxGeometry width="160" relative="1" as="geometry">
            <mxPoint x="240" y="37.75" as="sourcePoint" />
            <mxPoint x="211" y="37.75" as="targetPoint" />
          </mxGeometry>
        </mxCell>
        <mxCell id="crRijYuh_1POvyGoVFcz-187" value="&lt;font style=&quot;font-size: 9px;&quot;&gt;Согласован&lt;/font&gt;" style="text;html=1;strokeColor=none;fillColor=none;align=center;verticalAlign=middle;whiteSpace=wrap;rounded=0;" vertex="1" parent="crRijYuh_1POvyGoVFcz-3">
          <mxGeometry x="571" y="30" width="40" as="geometry" />
        </mxCell>
        <mxCell id="crRijYuh_1POvyGoVFcz-191" value="&lt;font style=&quot;font-size: 9px;&quot;&gt;Не согласован&lt;br&gt;&lt;/font&gt;" style="text;html=1;strokeColor=none;fillColor=none;align=center;verticalAlign=middle;whiteSpace=wrap;rounded=0;" vertex="1" parent="crRijYuh_1POvyGoVFcz-3">
          <mxGeometry x="481" y="70" width="63" as="geometry" />
        </mxCell>
        <mxCell id="crRijYuh_1POvyGoVFcz-91" value="" style="shape=datastore;html=1;labelPosition=center;verticalLabelPosition=bottom;align=center;verticalAlign=top;fillColor=#66FFFF;" vertex="1" parent="Jbeqt2HLPeFKV9M9eCiw-29">
          <mxGeometry x="240" y="20" width="40" height="45" as="geometry" />
        </mxCell>
        <mxCell id="crRijYuh_1POvyGoVFcz-140" style="edgeStyle=orthogonalEdgeStyle;rounded=0;orthogonalLoop=1;jettySize=auto;html=1;entryX=0;entryY=0.5;entryDx=0;entryDy=0;entryPerimeter=0;" edge="1" parent="Jbeqt2HLPeFKV9M9eCiw-31" source="crRijYuh_1POvyGoVFcz-16" target="crRijYuh_1POvyGoVFcz-49">
          <mxGeometry relative="1" as="geometry" />
        </mxCell>
        <mxCell id="crRijYuh_1POvyGoVFcz-139" style="edgeStyle=orthogonalEdgeStyle;rounded=0;orthogonalLoop=1;jettySize=auto;html=1;entryX=1;entryY=0.5;entryDx=0;entryDy=0;entryPerimeter=0;exitX=0.5;exitY=1;exitDx=0;exitDy=0;exitPerimeter=0;" edge="1" parent="Jbeqt2HLPeFKV9M9eCiw-31" source="crRijYuh_1POvyGoVFcz-49" target="crRijYuh_1POvyGoVFcz-17">
          <mxGeometry relative="1" as="geometry" />
        </mxCell>
        <mxCell id="crRijYuh_1POvyGoVFcz-152" style="edgeStyle=orthogonalEdgeStyle;rounded=0;orthogonalLoop=1;jettySize=auto;html=1;exitX=0;exitY=0.5;exitDx=0;exitDy=0;exitPerimeter=0;entryX=0.997;entryY=0.782;entryDx=0;entryDy=0;entryPerimeter=0;" edge="1" parent="Jbeqt2HLPeFKV9M9eCiw-31" source="crRijYuh_1POvyGoVFcz-15" target="crRijYuh_1POvyGoVFcz-11">
          <mxGeometry relative="1" as="geometry" />
        </mxCell>
        <mxCell id="crRijYuh_1POvyGoVFcz-154" style="edgeStyle=orthogonalEdgeStyle;rounded=0;orthogonalLoop=1;jettySize=auto;html=1;exitX=1;exitY=0.25;exitDx=0;exitDy=0;exitPerimeter=0;entryX=0.015;entryY=0.57;entryDx=0;entryDy=0;entryPerimeter=0;" edge="1" parent="Jbeqt2HLPeFKV9M9eCiw-31" source="crRijYuh_1POvyGoVFcz-11" target="crRijYuh_1POvyGoVFcz-13">
          <mxGeometry relative="1" as="geometry" />
        </mxCell>
        <mxCell id="crRijYuh_1POvyGoVFcz-149" style="edgeStyle=orthogonalEdgeStyle;rounded=0;orthogonalLoop=1;jettySize=auto;html=1;exitX=0.5;exitY=1;exitDx=0;exitDy=0;exitPerimeter=0;entryX=1;entryY=0.5;entryDx=0;entryDy=0;entryPerimeter=0;" edge="1" parent="Jbeqt2HLPeFKV9M9eCiw-31" source="crRijYuh_1POvyGoVFcz-50" target="crRijYuh_1POvyGoVFcz-15">
          <mxGeometry relative="1" as="geometry" />
        </mxCell>
        <mxCell id="crRijYuh_1POvyGoVFcz-194" style="edgeStyle=orthogonalEdgeStyle;rounded=0;orthogonalLoop=1;jettySize=auto;html=1;exitX=1;exitY=0.5;exitDx=0;exitDy=0;exitPerimeter=0;entryX=0;entryY=0.5;entryDx=0;entryDy=0;entryPerimeter=0;" edge="1" parent="Jbeqt2HLPeFKV9M9eCiw-31" source="crRijYuh_1POvyGoVFcz-13" target="crRijYuh_1POvyGoVFcz-50">
          <mxGeometry relative="1" as="geometry" />
        </mxCell>
        <mxCell id="crRijYuh_1POvyGoVFcz-156" style="edgeStyle=orthogonalEdgeStyle;rounded=0;orthogonalLoop=1;jettySize=auto;html=1;exitX=0.5;exitY=1;exitDx=0;exitDy=0;exitPerimeter=0;entryX=0;entryY=0.5;entryDx=0;entryDy=0;entryPerimeter=0;" edge="1" parent="Jbeqt2HLPeFKV9M9eCiw-30" source="crRijYuh_1POvyGoVFcz-40" target="Jbeqt2HLPeFKV9M9eCiw-48">
          <mxGeometry relative="1" as="geometry" />
        </mxCell>
        <mxCell id="crRijYuh_1POvyGoVFcz-179" style="edgeStyle=orthogonalEdgeStyle;rounded=0;orthogonalLoop=1;jettySize=auto;html=1;jumpStyle=arc;" edge="1" parent="Jbeqt2HLPeFKV9M9eCiw-30" source="crRijYuh_1POvyGoVFcz-54" target="crRijYuh_1POvyGoVFcz-47">
          <mxGeometry relative="1" as="geometry">
            <Array as="points">
              <mxPoint x="751" y="-26" />
              <mxPoint x="751" y="111" />
              <mxPoint x="526" y="111" />
            </Array>
          </mxGeometry>
        </mxCell>
        <mxCell id="crRijYuh_1POvyGoVFcz-172" style="edgeStyle=orthogonalEdgeStyle;rounded=0;orthogonalLoop=1;jettySize=auto;html=1;entryX=0;entryY=0.5;entryDx=0;entryDy=0;entryPerimeter=0;exitX=1;exitY=0.5;exitDx=0;exitDy=0;exitPerimeter=0;" edge="1" parent="Jbeqt2HLPeFKV9M9eCiw-30" source="crRijYuh_1POvyGoVFcz-47" target="crRijYuh_1POvyGoVFcz-167">
          <mxGeometry relative="1" as="geometry">
            <Array as="points">
              <mxPoint x="561" y="151" />
              <mxPoint x="561" y="55" />
            </Array>
          </mxGeometry>
        </mxCell>
        <mxCell id="crRijYuh_1POvyGoVFcz-14" value="" style="edgeStyle=elbowEdgeStyle;fontSize=12;html=1;endArrow=blockThin;endFill=1;rounded=0;entryX=0;entryY=0.5;entryDx=0;entryDy=0;entryPerimeter=0;exitX=0.5;exitY=1;exitDx=0;exitDy=0;exitPerimeter=0;" edge="1" parent="Jbeqt2HLPeFKV9M9eCiw-30" source="crRijYuh_1POvyGoVFcz-40" target="Jbeqt2HLPeFKV9M9eCiw-39">
          <mxGeometry width="160" relative="1" as="geometry">
            <mxPoint x="280.5" y="-20" as="sourcePoint" />
            <mxPoint x="315.5" y="206.5" as="targetPoint" />
            <Array as="points">
              <mxPoint x="290.5" y="70" />
              <mxPoint x="295.5" y="46.5" />
            </Array>
          </mxGeometry>
        </mxCell>
        <mxCell id="crRijYuh_1POvyGoVFcz-174" style="edgeStyle=orthogonalEdgeStyle;rounded=0;orthogonalLoop=1;jettySize=auto;html=1;entryX=0;entryY=0.5;entryDx=0;entryDy=0;entryPerimeter=0;exitX=1;exitY=0.5;exitDx=0;exitDy=0;exitPerimeter=0;" edge="1" parent="Jbeqt2HLPeFKV9M9eCiw-30" source="crRijYuh_1POvyGoVFcz-49" target="crRijYuh_1POvyGoVFcz-167">
          <mxGeometry relative="1" as="geometry">
            <mxPoint x="571" y="60" as="targetPoint" />
            <Array as="points">
              <mxPoint x="561" y="261" />
              <mxPoint x="561" y="55" />
            </Array>
          </mxGeometry>
        </mxCell>
        <mxCell id="crRijYuh_1POvyGoVFcz-12" value="" style="endArrow=classic;html=1;rounded=0;entryX=0;entryY=0.5;entryDx=0;entryDy=0;entryPerimeter=0;edgeStyle=orthogonalEdgeStyle;exitX=0.5;exitY=1;exitDx=0;exitDy=0;exitPerimeter=0;" edge="1" parent="Jbeqt2HLPeFKV9M9eCiw-30" source="crRijYuh_1POvyGoVFcz-40" target="crRijYuh_1POvyGoVFcz-11">
          <mxGeometry width="50" height="50" relative="1" as="geometry">
            <mxPoint x="290.5" y="-70" as="sourcePoint" />
            <mxPoint x="635.5" y="10" as="targetPoint" />
            <Array as="points">
              <mxPoint x="291" y="396" />
            </Array>
          </mxGeometry>
        </mxCell>
        <mxCell id="crRijYuh_1POvyGoVFcz-175" style="edgeStyle=orthogonalEdgeStyle;rounded=0;orthogonalLoop=1;jettySize=auto;html=1;entryX=0;entryY=0.5;entryDx=0;entryDy=0;entryPerimeter=0;exitX=1;exitY=0.5;exitDx=0;exitDy=0;exitPerimeter=0;" edge="1" parent="Jbeqt2HLPeFKV9M9eCiw-30" source="crRijYuh_1POvyGoVFcz-50" target="crRijYuh_1POvyGoVFcz-167">
          <mxGeometry relative="1" as="geometry">
            <Array as="points">
              <mxPoint x="561" y="371" />
              <mxPoint x="561" y="55" />
            </Array>
          </mxGeometry>
        </mxCell>
        <mxCell id="Jbeqt2HLPeFKV9M9eCiw-14" value="" style="fontSize=12;html=1;endFill=0;startFill=0;endSize=6;startSize=6;dashed=1;dashPattern=1 4;endArrow=none;startArrow=none;rounded=0;entryX=0.056;entryY=0.633;entryDx=0;entryDy=0;entryPerimeter=0;" parent="Jbeqt2HLPeFKV9M9eCiw-30" edge="1" target="Jbeqt2HLPeFKV9M9eCiw-15">
          <mxGeometry width="160" relative="1" as="geometry">
            <mxPoint x="70" y="-270" as="sourcePoint" />
            <mxPoint x="111" y="-278.68" as="targetPoint" />
          </mxGeometry>
        </mxCell>
        <mxCell id="crRijYuh_1POvyGoVFcz-96" value="" style="edgeStyle=elbowEdgeStyle;fontSize=12;html=1;endArrow=blockThin;endFill=1;rounded=0;exitX=0;exitY=0.5;exitDx=0;exitDy=0;" edge="1" parent="1" source="crRijYuh_1POvyGoVFcz-91">
          <mxGeometry width="160" relative="1" as="geometry">
            <mxPoint x="-259" y="694" as="sourcePoint" />
            <mxPoint x="221" y="642" as="targetPoint" />
          </mxGeometry>
        </mxCell>
        <mxCell id="crRijYuh_1POvyGoVFcz-101" value="" style="edgeStyle=elbowEdgeStyle;fontSize=12;html=1;endArrow=blockThin;endFill=1;rounded=0;exitX=0;exitY=0.5;exitDx=0;exitDy=0;" edge="1" source="crRijYuh_1POvyGoVFcz-100" parent="1">
          <mxGeometry width="160" relative="1" as="geometry">
            <mxPoint x="-269" y="574" as="sourcePoint" />
            <mxPoint x="211" y="522" as="targetPoint" />
          </mxGeometry>
        </mxCell>
        <mxCell id="crRijYuh_1POvyGoVFcz-181" style="edgeStyle=orthogonalEdgeStyle;rounded=0;orthogonalLoop=1;jettySize=auto;html=1;entryX=0.5;entryY=0;entryDx=0;entryDy=0;entryPerimeter=0;jumpStyle=arc;" edge="1" parent="1" target="crRijYuh_1POvyGoVFcz-49">
          <mxGeometry relative="1" as="geometry">
            <mxPoint x="761" y="480" as="sourcePoint" />
            <Array as="points">
              <mxPoint x="761" y="594" />
              <mxPoint x="536" y="594" />
            </Array>
          </mxGeometry>
        </mxCell>
        <mxCell id="crRijYuh_1POvyGoVFcz-193" style="edgeStyle=orthogonalEdgeStyle;rounded=0;orthogonalLoop=1;jettySize=auto;html=1;jumpStyle=arc;" edge="1" parent="1" target="crRijYuh_1POvyGoVFcz-50">
          <mxGeometry relative="1" as="geometry">
            <mxPoint x="761" y="594" as="sourcePoint" />
            <Array as="points">
              <mxPoint x="761" y="704" />
              <mxPoint x="536" y="704" />
            </Array>
          </mxGeometry>
        </mxCell>
        <mxCell id="Jbeqt2HLPeFKV9M9eCiw-6" value="A.1. Планирование" style="text;html=1;strokeColor=#000000;fillColor=none;align=center;verticalAlign=middle;whiteSpace=wrap;rounded=0;fontStyle=1;fontSize=9;" parent="1" vertex="1">
          <mxGeometry x="10" y="44" width="1140" height="30" as="geometry" />
        </mxCell>
        <mxCell id="Jbeqt2HLPeFKV9M9eCiw-11" value="" style="dashed=1;dashPattern=8 4;endArrow=blockThin;endFill=1;startArrow=oval;startFill=0;endSize=6;startSize=4;html=1;rounded=0;exitX=0.057;exitY=1.005;exitDx=0;exitDy=0;exitPerimeter=0;" parent="1" source="Jbeqt2HLPeFKV9M9eCiw-6" target="crRijYuh_1POvyGoVFcz-39" edge="1">
          <mxGeometry width="160" relative="1" as="geometry">
            <mxPoint x="70.00000000000009" y="48.99999999999994" as="sourcePoint" />
            <mxPoint x="71" y="299" as="targetPoint" />
          </mxGeometry>
        </mxCell>
        <mxCell id="Jbeqt2HLPeFKV9M9eCiw-16" value="&lt;p style=&quot;line-height: 60%;&quot;&gt;&lt;font style=&quot;font-size: 9px;&quot;&gt;A1.1.1. Годовой график бюджета&lt;/font&gt;&lt;/p&gt;" style="text;html=1;strokeColor=none;fillColor=none;align=center;verticalAlign=middle;whiteSpace=wrap;rounded=0;" parent="1" vertex="1">
          <mxGeometry x="71.25" y="105.32" width="80" height="40" as="geometry" />
        </mxCell>
        <mxCell id="Jbeqt2HLPeFKV9M9eCiw-15" value="" style="shape=mxgraph.bpmn.data;labelPosition=center;verticalLabelPosition=bottom;align=center;verticalAlign=top;size=15;html=1;" parent="1" vertex="1">
          <mxGeometry x="100" y="80" width="21.55" height="30" as="geometry" />
        </mxCell>
        <mxCell id="crRijYuh_1POvyGoVFcz-200" value="&lt;p style=&quot;line-height: 60%;&quot;&gt;&lt;font style=&quot;font-size: 9px;&quot;&gt;A1.1.3. Исполнение бюджета&lt;br&gt;&lt;/font&gt;&lt;/p&gt;" style="text;html=1;strokeColor=none;fillColor=none;align=center;verticalAlign=middle;whiteSpace=wrap;rounded=0;" vertex="1" parent="1">
          <mxGeometry x="1040" y="105.32" width="80" height="40" as="geometry" />
        </mxCell>
        <mxCell id="crRijYuh_1POvyGoVFcz-201" value="" style="shape=mxgraph.bpmn.data;labelPosition=center;verticalLabelPosition=bottom;align=center;verticalAlign=top;size=15;html=1;" vertex="1" parent="1">
          <mxGeometry x="1068.75" y="80" width="21.55" height="30" as="geometry" />
        </mxCell>
        <mxCell id="crRijYuh_1POvyGoVFcz-202" value="" style="fontSize=12;html=1;endFill=0;startFill=0;endSize=6;startSize=6;dashed=1;dashPattern=1 4;endArrow=none;startArrow=none;rounded=0;entryX=0.056;entryY=0.633;entryDx=0;entryDy=0;entryPerimeter=0;" edge="1" parent="1">
          <mxGeometry width="160" relative="1" as="geometry">
            <mxPoint x="1090" y="99.00000000000006" as="sourcePoint" />
            <mxPoint x="1111.2068" y="98.99000000000001" as="targetPoint" />
          </mxGeometry>
        </mxCell>
        <mxCell id="crRijYuh_1POvyGoVFcz-116" value="" style="dashed=1;dashPattern=8 4;endArrow=blockThin;endFill=1;startArrow=oval;startFill=0;endSize=6;startSize=4;html=1;rounded=0;entryX=0.97;entryY=1.012;entryDx=0;entryDy=0;entryPerimeter=0;" edge="1" parent="1" source="crRijYuh_1POvyGoVFcz-55" target="Jbeqt2HLPeFKV9M9eCiw-6">
          <mxGeometry width="160" relative="1" as="geometry">
            <mxPoint x="1121" y="89" as="sourcePoint" />
            <mxPoint x="1116" y="49" as="targetPoint" />
          </mxGeometry>
        </mxCell>
        <mxCell id="crRijYuh_1POvyGoVFcz-203" value="&lt;h1&gt;Морской терминал. Бизнес-процесс А-1.3. Операционный бюджет&lt;br&gt;&lt;/h1&gt;" style="text;html=1;strokeColor=none;fillColor=none;spacing=5;spacingTop=-20;whiteSpace=wrap;overflow=hidden;rounded=0;align=center;" vertex="1" parent="1">
          <mxGeometry x="10" y="10" width="1140" height="39" as="geometry" />
        </mxCell>
      </root>
    </mxGraphModel>
  </diagram>
</mxfile>
